<svg width="28" height="28" viewBox="0 0 28 28" fill="none" xmlns="http://www.w3.org/2000/svg">
<path d="M21.0003 9.33334C21.0003 7.47683 20.2628 5.69635 18.95 4.3836C17.6373 3.07084 15.8568 2.33334 14.0003 2.33334C12.1438 2.33334 10.3633 3.07084 9.05054 4.3836C7.73778 5.69635 7.00029 7.47683 7.00029 9.33334C7.00029 12.9386 6.09083 15.407 5.0749 17.0397C4.21793 18.4169 3.78945 19.1055 3.80517 19.2976C3.82256 19.5103 3.86762 19.5914 4.03903 19.7185C4.19382 19.8333 4.89164 19.8333 6.28728 19.8333H21.7133C23.1089 19.8333 23.8068 19.8333 23.9615 19.7185C24.133 19.5914 24.178 19.5103 24.1954 19.2976C24.2111 19.1055 23.7826 18.4169 22.9257 17.0397C21.9097 15.407 21.0003 12.9386 21.0003 9.33334Z" stroke="#0E1217" stroke-width="2" stroke-linecap="round" stroke-linejoin="round"/>
<path d="M25.3194 6.78999C25.3362 5.09675 24.4233 3.51556 22.9485 2.68344" stroke="#FE0A22" stroke-width="2" stroke-linecap="round" stroke-linejoin="round"/>
<path d="M10.9135 24.5C11.7362 25.2261 12.8168 25.6667 14.0003 25.6667C15.1838 25.6667 16.2644 25.2261 17.0871 24.5" stroke="#0E1217" stroke-width="2" stroke-linecap="round" stroke-linejoin="round"/>
</svg>
