<svg width="20" height="20" viewBox="0 0 20 20" fill="none" xmlns="http://www.w3.org/2000/svg">
<path d="M9.99998 18.25L9.90826 18.1124C9.27151 17.1573 8.95313 16.6797 8.53249 16.334C8.1601 16.0279 7.73101 15.7983 7.26978 15.6582C6.74879 15.5 6.17483 15.5 5.0269 15.5H3.76665C2.73988 15.5 2.2265 15.5 1.83433 15.3002C1.48937 15.1244 1.2089 14.8439 1.03313 14.499C0.833313 14.1068 0.833313 13.5934 0.833313 12.5667V4.68333C0.833313 3.65657 0.833313 3.14319 1.03313 2.75102C1.2089 2.40605 1.48937 2.12559 1.83433 1.94982C2.2265 1.75 2.73988 1.75 3.76665 1.75H4.13331C6.18684 1.75 7.2136 1.75 7.99794 2.14964C8.68787 2.50118 9.2488 3.06211 9.60034 3.75203C9.99998 4.53638 9.99998 5.56314 9.99998 7.61667M9.99998 18.25V7.61667M9.99998 18.25L10.0917 18.1124C10.7285 17.1573 11.0468 16.6797 11.4675 16.334C11.8399 16.0279 12.2689 15.7983 12.7302 15.6582C13.2512 15.5 13.8251 15.5 14.9731 15.5H16.2333C17.2601 15.5 17.7735 15.5 18.1656 15.3002C18.5106 15.1244 18.7911 14.8439 18.9668 14.499C19.1666 14.1068 19.1666 13.5934 19.1666 12.5667V4.68333C19.1666 3.65657 19.1666 3.14319 18.9668 2.75102C18.7911 2.40605 18.5106 2.12559 18.1656 1.94982C17.7735 1.75 17.2601 1.75 16.2333 1.75H15.8666C13.8131 1.75 12.7864 1.75 12.002 2.14964C11.3121 2.50118 10.7512 3.06211 10.3996 3.75203C9.99998 4.53638 9.99998 5.56314 9.99998 7.61667" stroke="#0E1217" stroke-width="1.6" stroke-linecap="round" stroke-linejoin="round"/>
</svg>
