<svg width="28" height="32" viewBox="0 0 28 32" fill="none" xmlns="http://www.w3.org/2000/svg">
<path d="M26.75 13.167H1.25M19.6667 1.83362V7.50029M8.33333 1.83362V7.50029M9.75 21.667L12.5833 24.5003L18.9583 18.1253M8.05 30.167H19.95C22.3302 30.167 23.5203 30.167 24.4295 29.7037C25.2291 29.2963 25.8793 28.6461 26.2868 27.8464C26.75 26.9373 26.75 25.7472 26.75 23.367V11.467C26.75 9.08673 26.75 7.89662 26.2868 6.98749C25.8793 6.1878 25.2291 5.53764 24.4295 5.13017C23.5203 4.66695 22.3302 4.66695 19.95 4.66695H8.05C5.66978 4.66695 4.47967 4.66695 3.57054 5.13017C2.77085 5.53764 2.12068 6.1878 1.71322 6.98749C1.25 7.89662 1.25 9.08673 1.25 11.467V23.367C1.25 25.7472 1.25 26.9373 1.71322 27.8464C2.12068 28.6461 2.77085 29.2963 3.57054 29.7037C4.47967 30.167 5.66978 30.167 8.05 30.167Z" stroke="#0E1217" stroke-width="2.4" stroke-linecap="round" stroke-linejoin="round"/>
</svg>
