<svg width="26" height="24" viewBox="0 0 26 24" fill="none" xmlns="http://www.w3.org/2000/svg">
<path d="M17.6667 6.16667C17.6667 5.0817 17.6667 4.53922 17.5474 4.09413C17.2238 2.88631 16.2804 1.94289 15.0726 1.61926C14.6275 1.5 14.085 1.5 13 1.5C11.9151 1.5 11.3726 1.5 10.9275 1.61926C9.71969 1.94289 8.77627 2.88631 8.45263 4.09413C8.33337 4.53922 8.33337 5.0817 8.33337 6.16667M5.06671 22.5H20.9334C22.2402 22.5 22.8936 22.5 23.3927 22.2457C23.8317 22.022 24.1887 21.665 24.4124 21.226C24.6667 20.7269 24.6667 20.0735 24.6667 18.7667V9.9C24.6667 8.59321 24.6667 7.93982 24.4124 7.44069C24.1887 7.00164 23.8317 6.64469 23.3927 6.42098C22.8936 6.16667 22.2402 6.16667 20.9334 6.16667H5.06671C3.75992 6.16667 3.10652 6.16667 2.6074 6.42098C2.16835 6.64469 1.8114 7.00164 1.58769 7.44069C1.33337 7.93982 1.33337 8.59321 1.33337 9.9V18.7667C1.33337 20.0735 1.33337 20.7269 1.58769 21.226C1.8114 21.665 2.16835 22.022 2.6074 22.2457C3.10652 22.5 3.75992 22.5 5.06671 22.5Z" stroke="white" stroke-width="2" stroke-linecap="round" stroke-linejoin="round"/>
</svg>
