<svg width="24" height="25" viewBox="0 0 24 25" fill="none" xmlns="http://www.w3.org/2000/svg">
<path d="M12 14.3333V10.25M12 6.16667H12.0117M9.55 20.4L11.2533 22.6711C11.5066 23.0089 11.6333 23.1777 11.7886 23.2381C11.9246 23.291 12.0754 23.291 12.2114 23.2381C12.3667 23.1777 12.4934 23.0089 12.7467 22.6711L14.45 20.4C14.792 19.944 14.963 19.716 15.1716 19.5419C15.4497 19.3098 15.778 19.1456 16.1306 19.0624C16.395 19 16.68 19 17.25 19C18.8808 19 19.6962 19 20.3394 18.7336C21.197 18.3783 21.8783 17.697 22.2336 16.8394C22.5 16.1962 22.5 15.3808 22.5 13.75V7.1C22.5 5.13982 22.5 4.15972 22.1185 3.41103C21.783 2.75247 21.2475 2.21703 20.589 1.88148C19.8403 1.5 18.8602 1.5 16.9 1.5H7.1C5.13982 1.5 4.15972 1.5 3.41103 1.88148C2.75247 2.21703 2.21703 2.75247 1.88148 3.41103C1.5 4.15972 1.5 5.13982 1.5 7.1V13.75C1.5 15.3808 1.5 16.1962 1.76642 16.8394C2.12165 17.697 2.80301 18.3783 3.66061 18.7336C4.30381 19 5.1192 19 6.75 19C7.32001 19 7.60501 19 7.86942 19.0624C8.22197 19.1456 8.5503 19.3098 8.82841 19.5419C9.03699 19.716 9.20799 19.944 9.55 20.4Z" stroke="white" stroke-width="2" stroke-linecap="round" stroke-linejoin="round"/>
</svg>
