<svg width="24" height="26" viewBox="0 0 24 26" fill="none" xmlns="http://www.w3.org/2000/svg">
<path d="M9.375 23.2083L11.0935 24.163C11.4243 24.3469 11.5898 24.4388 11.765 24.4748C11.92 24.5067 12.08 24.5067 12.235 24.4748C12.4102 24.4388 12.5757 24.3469 12.9065 24.163L14.625 23.2083M4.125 20.2917L2.46013 19.3667C2.1107 19.1726 1.93596 19.0755 1.80874 18.9375C1.69618 18.8153 1.61101 18.6706 1.5589 18.5129C1.5 18.3346 1.5 18.1347 1.5 17.735V15.9167M1.5 10.0833V8.26502C1.5 7.86527 1.5 7.66539 1.5589 7.48713C1.61101 7.32942 1.69618 7.18466 1.80874 7.06252C1.93597 6.92446 2.11069 6.82739 2.46013 6.63326L4.125 5.70833M9.375 2.79166L11.0935 1.83696C11.4243 1.65314 11.5898 1.56123 11.765 1.5252C11.92 1.49331 12.08 1.49331 12.235 1.5252C12.4102 1.56123 12.5757 1.65314 12.9065 1.83696L14.625 2.79166M19.875 5.70833L21.5399 6.63326C21.8893 6.82739 22.064 6.92446 22.1913 7.06252C22.3038 7.18466 22.389 7.32942 22.4411 7.48713C22.5 7.66539 22.5 7.86527 22.5 8.26502V10.0833M22.5 15.9167V17.735C22.5 18.1347 22.5 18.3346 22.4411 18.5129C22.389 18.6706 22.3038 18.8153 22.1913 18.9375C22.064 19.0755 21.8893 19.1726 21.5399 19.3667L19.875 20.2917M9.375 11.5417L12 13M12 13L14.625 11.5417M12 13V15.9167M1.5 7.16666L4.125 8.625M19.875 8.625L22.5 7.16666M12 21.75V24.6667" stroke="white" stroke-width="2" stroke-linecap="round" stroke-linejoin="round"/>
</svg>
