<svg width="26" height="25" viewBox="0 0 26 25" fill="none" xmlns="http://www.w3.org/2000/svg">
<path d="M9.50005 23.5V14.8667C9.50005 14.2133 9.50005 13.8866 9.6272 13.637C9.73906 13.4175 9.91753 13.239 10.1371 13.1272C10.3866 13 10.7133 13 11.3667 13H14.6334C15.2868 13 15.6135 13 15.863 13.1272C16.0826 13.239 16.261 13.4175 16.3729 13.637C16.5 13.8866 16.5 14.2133 16.5 14.8667V23.5M1.33337 10.0833L11.88 2.17333C12.2817 1.87211 12.4825 1.72149 12.7031 1.66344C12.8977 1.61219 13.1024 1.61219 13.297 1.66344C13.5176 1.72149 13.7184 1.87211 14.12 2.17333L24.6667 10.0833M3.66671 8.33333V19.7667C3.66671 21.0735 3.66671 21.7269 3.92103 22.226C4.14474 22.665 4.50169 23.022 4.94073 23.2457C5.43986 23.5 6.09326 23.5 7.40005 23.5H18.6C19.9068 23.5 20.5602 23.5 21.0594 23.2457C21.4984 23.022 21.8554 22.665 22.0791 22.226C22.3334 21.7269 22.3334 21.0735 22.3334 19.7667V8.33333L15.24 3.01333C14.4368 2.41088 14.0351 2.10965 13.594 1.99354C13.2047 1.89104 12.7954 1.89104 12.4061 1.99354C11.965 2.10965 11.5633 2.41088 10.76 3.01333L3.66671 8.33333Z" stroke="white" stroke-width="2" stroke-linecap="round" stroke-linejoin="round"/>
</svg>
