<svg width="26" height="25" viewBox="0 0 26 25" fill="none" xmlns="http://www.w3.org/2000/svg">
<path d="M15.0347 2.0725L23.8174 7.78125C24.1277 7.98297 24.2829 8.08383 24.3953 8.21837C24.4948 8.33746 24.5696 8.47521 24.6152 8.62356C24.6667 8.79114 24.6667 8.97621 24.6667 9.34635V17.9C24.6667 19.8602 24.6667 20.8403 24.2852 21.589C23.9497 22.2475 23.4142 22.783 22.7557 23.1185C22.007 23.5 21.0269 23.5 19.0667 23.5H6.93337C4.97319 23.5 3.9931 23.5 3.24441 23.1185C2.58584 22.783 2.05041 22.2475 1.71485 21.589C1.33337 20.8403 1.33337 19.8602 1.33337 17.9V9.34635C1.33337 8.97621 1.33337 8.79114 1.38491 8.62356C1.43052 8.47521 1.50528 8.33746 1.6048 8.21837C1.71722 8.08383 1.87239 7.98297 2.18273 7.78125L10.9654 2.07251M15.0347 2.0725C14.2982 1.59381 13.93 1.35446 13.5332 1.26134C13.1825 1.17902 12.8175 1.17902 12.4668 1.26134C12.0701 1.35446 11.7019 1.59381 10.9654 2.07251M15.0347 2.0725L23.4628 7.55079C23.864 7.81159 24.0647 7.942 24.1341 8.10737C24.1949 8.25189 24.1949 8.41477 24.1341 8.55929C24.0647 8.72467 23.864 8.85507 23.4628 9.11588L15.0347 14.5942C14.2982 15.0729 13.93 15.3122 13.5332 15.4053C13.1825 15.4876 12.8175 15.4876 12.4668 15.4053C12.0701 15.3122 11.7019 15.0729 10.9654 14.5942L2.53729 9.11588C2.13605 8.85507 1.93543 8.72467 1.86594 8.55929C1.80522 8.41477 1.80522 8.25189 1.86594 8.10737C1.93543 7.942 2.13605 7.8116 2.53729 7.55079L10.9654 2.07251" stroke="white" stroke-width="2" stroke-linecap="round" stroke-linejoin="round"/>
</svg>
