<svg width="26" height="26" viewBox="0 0 26 26" fill="none" xmlns="http://www.w3.org/2000/svg">
<path d="M13 16.5C9.13405 16.5 6.00004 13.366 6.00004 9.49999V3.01851C6.00004 2.53569 6.00004 2.29428 6.0704 2.10097C6.18835 1.77691 6.44362 1.52164 6.76768 1.40369C6.96099 1.33333 7.2024 1.33333 7.68523 1.33333H18.3149C18.7977 1.33333 19.0391 1.33333 19.2324 1.40369C19.5565 1.52164 19.8117 1.77691 19.9297 2.10097C20 2.29428 20 2.53569 20 3.01851V9.5C20 13.366 16.866 16.5 13 16.5ZM13 16.5V20M20 3.66666H22.9167C23.4603 3.66666 23.7321 3.66666 23.9465 3.75547C24.2324 3.87388 24.4595 4.101 24.5779 4.38686C24.6667 4.60126 24.6667 4.87306 24.6667 5.41666V5.99999C24.6667 7.08496 24.6667 7.62744 24.5474 8.07253C24.2238 9.28035 23.2804 10.2238 22.0726 10.5474C21.6275 10.6667 21.085 10.6667 20 10.6667M6.00004 3.66666H3.08337C2.53978 3.66666 2.26798 3.66666 2.05358 3.75547C1.76771 3.87388 1.54059 4.101 1.42218 4.38686C1.33337 4.60126 1.33337 4.87306 1.33337 5.41666V5.99999C1.33337 7.08496 1.33337 7.62744 1.45263 8.07253C1.77627 9.28035 2.71969 10.2238 3.92751 10.5474C4.37259 10.6667 4.91507 10.6667 6.00004 10.6667M7.68523 24.6667H18.3149C18.6012 24.6667 18.8334 24.4345 18.8334 24.1481C18.8334 21.8572 16.9762 20 14.6852 20H11.3149C9.0239 20 7.16671 21.8572 7.16671 24.1481C7.16671 24.4345 7.39886 24.6667 7.68523 24.6667Z" stroke="white" stroke-width="2" stroke-linecap="round" stroke-linejoin="round"/>
</svg>
