<svg width="22" height="26" viewBox="0 0 22 26" fill="none" xmlns="http://www.w3.org/2000/svg">
<path d="M20.3333 21.1667V17.6667H5.16663C3.23363 17.6667 1.66663 19.2337 1.66663 21.1667M7.26663 24.6667H16.6C17.9067 24.6667 18.5601 24.6667 19.0593 24.4123C19.4983 24.1886 19.8553 23.8317 20.079 23.3926C20.3333 22.8935 20.3333 22.2401 20.3333 20.9333V5.06666C20.3333 3.75987 20.3333 3.10648 20.079 2.60735C19.8553 2.16831 19.4983 1.81135 19.0593 1.58765C18.5601 1.33333 17.9067 1.33333 16.6 1.33333H7.26663C5.30644 1.33333 4.32635 1.33333 3.57766 1.71481C2.91909 2.05036 2.38366 2.58579 2.0481 3.24436C1.66663 3.99305 1.66663 4.97314 1.66663 6.93333V19.0667C1.66663 21.0268 1.66663 22.0069 2.0481 22.7556C2.38366 23.4142 2.91909 23.9496 3.57766 24.2852C4.32635 24.6667 5.30644 24.6667 7.26663 24.6667Z" stroke="white" stroke-width="2" stroke-linecap="round" stroke-linejoin="round"/>
</svg>
