<svg width="26" height="26" viewBox="0 0 26 26" fill="none" xmlns="http://www.w3.org/2000/svg">
<path d="M13 16.5C14.933 16.5 16.5 14.933 16.5 13C16.5 11.067 14.933 9.50001 13 9.50001C11.067 9.50001 9.50004 11.067 9.50004 13C9.50004 14.933 11.067 16.5 13 16.5Z" stroke="white" stroke-width="2" stroke-linecap="round" stroke-linejoin="round"/>
<path d="M20.8485 16.1818C20.7073 16.5017 20.6652 16.8566 20.7276 17.2006C20.79 17.5447 20.954 17.8622 21.1985 18.1121L21.2622 18.1758C21.4594 18.3728 21.6158 18.6067 21.7226 18.8642C21.8293 19.1217 21.8843 19.3978 21.8843 19.6765C21.8843 19.9553 21.8293 20.2313 21.7226 20.4888C21.6158 20.7463 21.4594 20.9803 21.2622 21.1773C21.0652 21.3745 20.8312 21.531 20.5737 21.6377C20.3162 21.7445 20.0402 21.7994 19.7614 21.7994C19.4826 21.7994 19.2066 21.7445 18.9491 21.6377C18.6916 21.531 18.4577 21.3745 18.2606 21.1773L18.197 21.1136C17.947 20.8691 17.6296 20.7051 17.2855 20.6427C16.9415 20.5804 16.5866 20.6225 16.2667 20.7636C15.953 20.8981 15.6855 21.1213 15.497 21.4059C15.3086 21.6904 15.2075 22.0239 15.2061 22.3652V22.5455C15.2061 23.108 14.9826 23.6476 14.5848 24.0454C14.187 24.4432 13.6475 24.6667 13.0849 24.6667C12.5223 24.6667 11.9828 24.4432 11.585 24.0454C11.1872 23.6476 10.9637 23.108 10.9637 22.5455V22.45C10.9555 22.099 10.8418 21.7585 10.6376 21.4729C10.4333 21.1873 10.1478 20.9697 9.81822 20.8485C9.49833 20.7073 9.14347 20.6652 8.79942 20.7276C8.45536 20.79 8.13788 20.954 7.88792 21.1985L7.82428 21.2621C7.62728 21.4594 7.39333 21.6158 7.13582 21.7226C6.87831 21.8293 6.60229 21.8843 6.32353 21.8843C6.04477 21.8843 5.76874 21.8293 5.51123 21.7226C5.25372 21.6158 5.01977 21.4594 4.82277 21.2621C4.62555 21.0651 4.46909 20.8312 4.36234 20.5737C4.25559 20.3162 4.20065 20.0401 4.20065 19.7614C4.20065 19.4826 4.25559 19.2066 4.36234 18.9491C4.46909 18.6916 4.62555 18.4576 4.82277 18.2606L4.8864 18.197C5.13091 17.947 5.29493 17.6295 5.35732 17.2855C5.4197 16.9414 5.37759 16.5866 5.2364 16.2667C5.10196 15.953 4.87872 15.6854 4.59417 15.497C4.30962 15.3086 3.97618 15.2074 3.63489 15.2061H3.45459C2.89201 15.2061 2.35247 14.9826 1.95466 14.5848C1.55686 14.187 1.33337 13.6474 1.33337 13.0849C1.33337 12.5223 1.55686 11.9827 1.95466 11.5849C2.35247 11.1871 2.89201 10.9636 3.45459 10.9636H3.55004C3.9011 10.9554 4.24156 10.8418 4.52718 10.6375C4.81279 10.4332 5.03035 10.1478 5.15156 9.81819C5.29274 9.4983 5.33485 9.14344 5.27247 8.79939C5.21009 8.45533 5.04606 8.13785 4.80156 7.88789L4.73792 7.82425C4.5407 7.62725 4.38424 7.3933 4.27749 7.13579C4.17074 6.87828 4.1158 6.60226 4.1158 6.3235C4.1158 6.04474 4.17074 5.76871 4.27749 5.5112C4.38424 5.25369 4.5407 5.01974 4.73792 4.82274C4.93492 4.62551 5.16887 4.46906 5.42638 4.36231C5.68389 4.25556 5.95992 4.20061 6.23868 4.20061C6.51744 4.20061 6.79346 4.25556 7.05098 4.36231C7.30849 4.46906 7.54243 4.62551 7.73944 4.82274L7.80307 4.88637C8.05303 5.13088 8.37051 5.2949 8.71457 5.35729C9.05862 5.41967 9.41348 5.37756 9.73337 5.23637H9.81822C10.1319 5.10193 10.3995 4.87869 10.5879 4.59414C10.7763 4.30959 10.8775 3.97615 10.8788 3.63486V3.45456C10.8788 2.89198 11.1023 2.35244 11.5001 1.95463C11.8979 1.55683 12.4375 1.33334 13 1.33334C13.5626 1.33334 14.1022 1.55683 14.5 1.95463C14.8978 2.35244 15.1213 2.89198 15.1213 3.45456V3.55001C15.1226 3.8913 15.2237 4.22474 15.4122 4.50929C15.6006 4.79384 15.8682 5.01708 16.1819 5.15153C16.5018 5.29271 16.8566 5.33482 17.2007 5.27244C17.5447 5.21006 17.8622 5.04603 18.1122 4.80153L18.1758 4.73789C18.3728 4.54067 18.6067 4.38421 18.8643 4.27746C19.1218 4.17071 19.3978 4.11577 19.6766 4.11577C19.9553 4.11577 20.2313 4.17071 20.4889 4.27746C20.7464 4.38421 20.9803 4.54067 21.1773 4.73789C21.3745 4.93489 21.531 5.16884 21.6377 5.42635C21.7445 5.68386 21.7994 5.95989 21.7994 6.23865C21.7994 6.51741 21.7445 6.79343 21.6377 7.05094C21.531 7.30846 21.3745 7.5424 21.1773 7.7394L21.1137 7.80304C20.8692 8.053 20.7051 8.37048 20.6428 8.71454C20.5804 9.05859 20.6225 9.41345 20.7637 9.73334V9.81819C20.8981 10.1319 21.1214 10.3994 21.4059 10.5879C21.6905 10.7763 22.0239 10.8774 22.3652 10.8788H22.5455C23.1081 10.8788 23.6476 11.1023 24.0454 11.5001C24.4432 11.8979 24.6667 12.4374 24.6667 13C24.6667 13.5626 24.4432 14.1021 24.0454 14.4999C23.6476 14.8977 23.1081 15.1212 22.5455 15.1212H22.45C22.1088 15.1226 21.7753 15.2237 21.4908 15.4122C21.2062 15.6006 20.983 15.8681 20.8485 16.1818Z" stroke="white" stroke-width="2" stroke-linecap="round" stroke-linejoin="round"/>
</svg>
