<svg width="31" height="31" viewBox="0 0 31 31" fill="none" xmlns="http://www.w3.org/2000/svg">
<path d="M15 20.2498L10.75 15.9998M15 20.2498C16.9789 19.4972 18.8773 18.548 20.6667 17.4164M15 20.2498V27.3331C15 27.3331 19.2925 26.5539 20.6667 24.4998C22.1967 22.2048 20.6667 17.4164 20.6667 17.4164M10.75 15.9998C11.5039 14.044 12.4531 12.1692 13.5834 10.4039C15.234 7.76468 17.5325 5.5916 20.2601 4.09141C22.9877 2.59122 26.0538 1.81381 29.1667 1.83311C29.1667 5.68645 28.0617 12.4581 20.6667 17.4164M10.75 15.9998H3.66669C3.66669 15.9998 4.44585 11.7073 6.50002 10.3331C8.79502 8.80311 13.5834 10.3331 13.5834 10.3331M4.37502 22.3748C2.25002 24.1598 1.54169 29.4581 1.54169 29.4581C1.54169 29.4581 6.84002 28.7498 8.62502 26.6248C9.63085 25.4348 9.61669 23.6073 8.49752 22.5023C7.94687 21.9767 7.22152 21.673 6.46067 21.6495C5.69983 21.626 4.9571 21.8842 4.37502 22.3748Z" stroke="#0E1217" stroke-width="2.4" stroke-linecap="round" stroke-linejoin="round"/>
</svg>
