<svg width="32" height="32" viewBox="0 0 32 32" fill="none" xmlns="http://www.w3.org/2000/svg">
<path d="M3.35762 9.60095L9.43235 13.94C9.74844 14.1657 9.90649 14.2786 10.0719 14.3046C10.2175 14.3275 10.3665 14.3045 10.4983 14.2387C10.6481 14.1639 10.7647 14.0085 10.9977 13.6977L12.2814 11.9862C12.3473 11.8983 12.3803 11.8544 12.419 11.8165C12.4534 11.7828 12.4911 11.7527 12.5316 11.7267C12.5772 11.6974 12.6274 11.6751 12.7278 11.6305L18.2083 9.19475C18.4355 9.09378 18.5491 9.04329 18.6347 8.96444C18.7105 8.89471 18.7701 8.80929 18.8095 8.71414C18.854 8.60657 18.8623 8.48254 18.8788 8.23448L19.2801 2.21528M18.125 18.1253L21.831 19.7136C22.261 19.8979 22.476 19.99 22.5899 20.143C22.6898 20.2773 22.7389 20.4426 22.7286 20.6097C22.7168 20.8001 22.587 20.9947 22.3276 21.3839L20.5864 23.9956C20.4634 24.1802 20.4019 24.2724 20.3207 24.3392C20.2487 24.3983 20.1658 24.4427 20.0767 24.4697C19.9761 24.5003 19.8652 24.5003 19.6434 24.5003H16.8168C16.5231 24.5003 16.3762 24.5003 16.2513 24.4512C16.1409 24.4078 16.0432 24.3373 15.9671 24.2464C15.881 24.1434 15.8346 24.004 15.7417 23.7254L14.7318 20.6956C14.677 20.5313 14.6496 20.4491 14.6424 20.3656C14.636 20.2915 14.6413 20.2169 14.6581 20.1445C14.677 20.0628 14.7158 19.9854 14.7933 19.8304L15.5604 18.2961C15.7163 17.9844 15.7942 17.8285 15.9142 17.7317C16.02 17.6465 16.1481 17.5934 16.2832 17.5789C16.4365 17.5625 16.6018 17.6176 16.9325 17.7278L18.125 18.1253ZM30.1666 16.0003C30.1666 23.8243 23.824 30.167 16 30.167C8.17595 30.167 1.83331 23.8243 1.83331 16.0003C1.83331 8.17625 8.17595 1.83362 16 1.83362C23.824 1.83362 30.1666 8.17625 30.1666 16.0003Z" stroke="#0E1217" stroke-width="2.4" stroke-linecap="round" stroke-linejoin="round"/>
</svg>
