<svg width="38" height="39" viewBox="0 0 38 39" fill="none" xmlns="http://www.w3.org/2000/svg">
<ellipse cx="19" cy="19.725" rx="19" ry="18.8725" fill="white"/>
<path d="M17.1667 15.1723L10.75 15.1723M27.25 15.1723L20.8334 15.1723M20.8334 15.4017C23.9963 16.2103 26.3334 19.0622 26.3334 22.4563M11.6667 22.4563C11.6667 19.0622 14.0038 16.2103 17.1667 15.4017M11.3 26.0984H12.0334C12.5468 26.0984 12.8034 26.0984 12.9995 25.9992C13.172 25.9119 13.3122 25.7726 13.4001 25.6013C13.5 25.4065 13.5 25.1515 13.5 24.6416V23.9132C13.5 23.4033 13.5 23.1483 13.4001 22.9535C13.3122 22.7822 13.172 22.6429 12.9995 22.5556C12.8034 22.4564 12.5468 22.4564 12.0334 22.4564H11.3C10.7867 22.4564 10.53 22.4564 10.3339 22.5556C10.1614 22.6429 10.0212 22.7822 9.93328 22.9535C9.83337 23.1483 9.83337 23.4033 9.83337 23.9132V24.6416C9.83337 25.1515 9.83337 25.4065 9.93328 25.6013C10.0212 25.7726 10.1614 25.9119 10.3339 25.9992C10.53 26.0984 10.7867 26.0984 11.3 26.0984ZM18.6334 16.9933H19.3667C19.8801 16.9933 20.1368 16.9933 20.3329 16.8941C20.5053 16.8068 20.6456 16.6675 20.7335 16.4961C20.8334 16.3014 20.8334 16.0464 20.8334 15.5365V14.8081C20.8334 14.2981 20.8334 14.0432 20.7335 13.8484C20.6456 13.6771 20.5053 13.5378 20.3329 13.4505C20.1368 13.3512 19.8801 13.3512 19.3667 13.3512H18.6334C18.12 13.3512 17.8633 13.3512 17.6672 13.4505C17.4947 13.5378 17.3545 13.6771 17.2666 13.8484C17.1667 14.0432 17.1667 14.2981 17.1667 14.8081V15.5365C17.1667 16.0464 17.1667 16.3014 17.2666 16.4961C17.3545 16.6675 17.4947 16.8068 17.6672 16.8941C17.8633 16.9933 18.12 16.9933 18.6334 16.9933ZM25.9667 26.0984H26.7C27.2134 26.0984 27.4701 26.0984 27.6662 25.9992C27.8387 25.9119 27.9789 25.7726 28.0668 25.6013C28.1667 25.4065 28.1667 25.1515 28.1667 24.6416V23.9132C28.1667 23.4033 28.1667 23.1483 28.0668 22.9535C27.9789 22.7822 27.8387 22.6429 27.6662 22.5556C27.4701 22.4564 27.2134 22.4564 26.7 22.4564H25.9667C25.4533 22.4564 25.1966 22.4564 25.0005 22.5556C24.8281 22.6429 24.6878 22.7822 24.6 22.9535C24.5 23.1483 24.5 23.4033 24.5 23.9132V24.6416C24.5 25.1515 24.5 25.4065 24.6 25.6013C24.6878 25.7726 24.8281 25.9119 25.0005 25.9992C25.1966 26.0984 25.4533 26.0984 25.9667 26.0984ZM28.1667 15.1723C28.1667 15.6751 27.7563 16.0828 27.25 16.0828C26.7438 16.0828 26.3334 15.6751 26.3334 15.1723C26.3334 14.6694 26.7438 14.2617 27.25 14.2617C27.7563 14.2617 28.1667 14.6694 28.1667 15.1723ZM11.6667 15.1723C11.6667 15.6751 11.2563 16.0828 10.75 16.0828C10.2438 16.0828 9.83337 15.6751 9.83337 15.1723C9.83337 14.6694 10.2438 14.2617 10.75 14.2617C11.2563 14.2617 11.6667 14.6694 11.6667 15.1723Z" stroke="#0E1217" stroke-width="1.6" stroke-linecap="round" stroke-linejoin="round"/>
</svg>
