<svg width="12" height="163" viewBox="0 0 12 163" fill="none" xmlns="http://www.w3.org/2000/svg">
<mask id="path-1-inside-1_35_528" fill="white">
<path fill-rule="evenodd" clip-rule="evenodd" d="M7 11.917C9.83771 11.441 12 8.973 12 6C12 2.68629 9.31371 0 6 0C2.68629 0 0 2.68629 0 6C0 8.973 2.16229 11.441 5 11.917V163H7V11.917Z"/>
</mask>
<path fill-rule="evenodd" clip-rule="evenodd" d="M7 11.917C9.83771 11.441 12 8.973 12 6C12 2.68629 9.31371 0 6 0C2.68629 0 0 2.68629 0 6C0 8.973 2.16229 11.441 5 11.917V163H7V11.917Z" fill="#0E1217"/>
<path d="M7 11.917L6.66909 9.94461L5 10.2246V11.917H7ZM5 11.917H7V10.2246L5.33091 9.94461L5 11.917ZM5 163H3V165H5V163ZM7 163V165H9V163H7ZM10 6C10 7.98001 8.55938 9.62748 6.66909 9.94461L7.33091 13.8895C11.116 13.2545 14 9.96598 14 6H10ZM6 2C8.20914 2 10 3.79086 10 6H14C14 1.58172 10.4183 -2 6 -2V2ZM2 6C2 3.79086 3.79086 2 6 2V-2C1.58172 -2 -2 1.58172 -2 6H2ZM5.33091 9.94461C3.44062 9.62748 2 7.98001 2 6H-2C-2 9.96598 0.883952 13.2545 4.66909 13.8895L5.33091 9.94461ZM7 163V11.917H3V163H7ZM7 161H5V165H7V161ZM5 11.917V163H9V11.917H5Z" fill="#0E1217" mask="url(#path-1-inside-1_35_528)"/>
</svg>
